# xmcd CD database file
#
# Track frame offsets:
#	150
#	6765
#	23350
#	38452
#	53025
#	70482
#	74100
#	93380
#	110992
#	131980
#	134540
#	146087
#	167542
#	188112
#	202050
#	209555
#	218382
#	237032
#	247572
#
# Disc length: 3476 seconds
#
# Revision: 0
# Processed by: cddbd v1.5.2PL0 Copyright (c) Steve Scherf et al.
# Submitted via: CDex 1.70beta2
#
DISCID=160d9213
DTITLE=Various Artist - Deutsches Jazz Festival Frankfurt 1955/6
DYEAR=1955
DGENRE=Jazz
TTITLE0=Helmut Brandt Combo - Moderation
TTITLE1=Helmut Brandt Combo - Squeeze me
TTITLE2=Helmut Brandt Combo - Sum
TTITLE3=Helmut Brandt Combo - The Breeze and I
TTITLE4=Helmut Brandt Combo - I Can't Believe That You're in Love with me
TTITLE5=Erhard Wenig Quartett - Moderation
TTITLE6=Erhard Wenig Quartett - Out of Nowhere
TTITLE7=Erhard Wenig Quartett - Tenor Jump
TTITLE8=Erhard Wenig Quartett - Remember Riff
TTITLE9=Freddy Christmann Quartett - Moderation
TTITLE10=Freddy Christmann Quartett - Cynthia's in Love
TTITLE11=Freddy Christmann Quartett - As Long As There's Music
TTITLE12=Freddy Christmann Quartett - First Love
TTITLE13=Freddy Christmann Quartett - Passé
TTITLE14=Wolfgang Lauth Quartett - Moderation
TTITLE15=Wolfgang Lauth Quartett - Thema in B
TTITLE16=Wolfgang Lauth Quartett - Tomorrow
TTITLE17=Wolfgang Lauth Quartett - Cool March
TTITLE18=Wolfgang Lauth Quartett - Cave Souvenir
EXTD=YEAR: 1955
EXTT0=
EXTT1=
EXTT2=
EXTT3=
EXTT4=
EXTT5=
EXTT6=
EXTT7=
EXTT8=
EXTT9=
EXTT10=
EXTT11=
EXTT12=
EXTT13=
EXTT14=
EXTT15=
EXTT16=
EXTT17=
EXTT18=
PLAYORDER=
